<?xml version="1.0" standalone="no"?>
<!DOCTYPE svg PUBLIC "-//W3C//DTD SVG 20010904//EN"
 "http://www.w3.org/TR/2001/REC-SVG-20010904/DTD/svg10.dtd">
<svg version="1.0" xmlns="http://www.w3.org/2000/svg"
 width="7000.000000pt" height="1500.000000pt" viewBox="0 0 7000.000000 1500.000000"
 preserveAspectRatio="xMidYMid meet">

<g transform="translate(0.000000,1500.000000) scale(0.100000,-0.100000)"
fill="#ffffff" stroke="none">
<path d="M6940 7976 l0 -6234 33 -11 c110 -35 2391 -755 2567 -810 l215 -68 6
5311 c4 3863 8 5325 17 5363 26 123 45 183 82 260 118 250 329 309 605 171
213 -107 333 -302 392 -638 16 -87 17 -291 20 -2321 l3 -2226 38 -18 c269
-130 608 -238 878 -280 146 -23 397 -30 538 -16 513 53 935 311 1230 751 178
265 329 675 390 1061 69 427 75 1058 15 1574 -135 1180 -577 1938 -1474 2529
-559 369 -1162 625 -2360 1001 -1110 348 -2257 654 -3018 806 -81 16 -155 29
-163 29 -12 0 -14 -796 -14 -6234z"/>
<path d="M19730 7610 l0 -3570 625 0 625 0 0 3180 0 3180 764 0 c463 0 784 -4
817 -10 195 -36 375 -212 486 -473 105 -248 156 -565 156 -967 -1 -783 -200
-1296 -562 -1442 -55 -23 -62 -23 -578 -26 l-523 -3 0 -385 0 -385 723 4 c644
3 730 5 797 21 548 128 984 520 1211 1088 128 322 189 674 189 1103 0 793
-198 1400 -585 1791 -130 131 -226 204 -369 279 -126 67 -201 97 -324 131
-195 53 -202 53 -1889 54 l-1563 0 0 -3570z"/>
<path d="M25247 11173 c-4 -3 -7 -1610 -7 -3570 l0 -3563 630 0 630 0 0 3570
0 3570 -623 0 c-343 0 -627 -3 -630 -7z"/>
<path d="M39820 11169 c-207 -14 -431 -64 -604 -134 -536 -216 -922 -680
-1065 -1280 -38 -160 -43 -227 -39 -615 4 -343 6 -384 27 -479 53 -248 161
-503 298 -711 57 -85 111 -149 207 -246 141 -140 252 -222 409 -301 239 -119
444 -167 862 -198 349 -27 465 -42 567 -74 315 -102 524 -361 577 -718 16
-107 14 -646 -3 -773 -49 -361 -205 -607 -470 -740 -56 -28 -137 -60 -181 -73
-80 -21 -85 -22 -1052 -25 l-973 -3 0 -379 0 -380 1213 0 c1250 0 1297 2 1464
41 307 71 594 243 801 479 251 285 418 691 462 1119 13 134 13 794 -1 919 -24
225 -100 485 -200 685 -178 356 -420 609 -724 757 -206 101 -299 119 -840 165
-495 42 -576 51 -651 71 -304 79 -539 394 -585 785 -17 152 -6 494 21 622 54
257 163 440 336 563 80 57 150 89 271 122 l98 27 943 3 942 3 0 389 0 390
-997 -1 c-549 -1 -1050 -5 -1113 -10z"/>
<path d="M55250 10645 l0 -535 630 0 630 0 0 535 0 535 -630 0 -630 0 0 -535z"/>
<path d="M43252 7878 l3 -2503 23 -110 c34 -156 73 -271 146 -420 220 -448
587 -724 1051 -790 76 -11 218 -15 583 -15 l482 0 0 380 0 380 -308 0 c-334 0
-379 5 -474 57 -67 36 -144 121 -178 196 -63 139 -60 46 -60 1932 l0 1715 680
0 680 0 0 385 0 385 -680 0 -680 0 0 455 0 455 -635 0 -635 0 2 -2502z"/>
<path d="M51850 7940 c0 -1641 3 -2473 11 -2538 21 -201 72 -372 170 -567 187
-377 482 -632 858 -741 164 -48 248 -54 769 -54 l482 0 0 380 0 380 -308 0
c-327 0 -374 5 -464 51 -70 36 -142 113 -181 192 -71 147 -67 45 -67 1947 l0
1710 680 0 680 0 0 385 0 385 -680 0 -680 0 0 455 0 455 -635 0 -635 0 0
-2440z"/>
<path d="M29345 9459 c-784 -67 -1313 -399 -1620 -1017 -174 -352 -266 -761
-295 -1312 -13 -251 -13 -1343 0 -1566 20 -337 91 -597 230 -840 204 -355 545
-602 925 -670 64 -11 217 -14 763 -14 l682 0 0 379 0 380 -482 4 c-419 3 -490
6 -532 20 -188 64 -285 218 -315 499 -14 128 -15 1838 -1 2053 26 405 87 686
196 908 54 110 96 168 177 243 75 71 159 117 264 146 75 21 99 22 671 26 l592
3 0 -2335 0 -2336 358 0 c197 0 481 3 630 7 l272 6 0 2714 0 2713 -1207 -1
c-665 -1 -1253 -6 -1308 -10z"/>
<path d="M32661 9118 c153 -450 156 -458 294 -863 64 -187 132 -385 150 -440
18 -55 65 -192 104 -305 247 -725 526 -1545 606 -1780 51 -151 157 -462 235
-690 218 -638 311 -913 319 -939 5 -18 -7 -62 -45 -160 -29 -75 -157 -408
-284 -741 -128 -333 -254 -661 -281 -730 -110 -283 -402 -1046 -406 -1062 -5
-17 25 -18 540 -18 l545 0 122 308 c68 169 327 820 577 1447 250 627 542 1358
648 1625 297 747 669 1679 1050 2635 191 479 452 1135 581 1459 129 324 237
593 240 598 3 4 -264 8 -594 8 l-599 0 -36 -92 c-20 -51 -88 -228 -152 -393
-64 -165 -150 -385 -190 -490 -41 -104 -119 -307 -175 -450 -55 -143 -136
-352 -180 -465 -43 -113 -120 -311 -170 -440 -51 -129 -152 -390 -225 -580
-219 -568 -246 -635 -254 -643 -4 -4 -62 154 -128 350 -67 197 -199 585 -293
863 -95 278 -176 516 -180 530 -4 14 -82 243 -173 510 -91 267 -227 668 -303
893 l-139 407 -662 0 -661 0 119 -352z"/>
<path d="M48305 9459 c-692 -59 -1181 -323 -1502 -809 -224 -339 -353 -772
-405 -1355 -19 -215 -19 -1726 0 -1875 40 -311 137 -582 285 -799 68 -100 263
-295 357 -358 102 -69 238 -135 340 -168 171 -54 189 -55 933 -55 l687 0 0
379 0 380 -487 4 c-423 3 -495 6 -537 20 -160 55 -252 173 -299 383 -22 99
-22 102 -22 1144 0 918 2 1063 17 1195 36 320 98 566 185 740 56 111 96 167
176 241 75 71 159 117 264 146 75 21 98 22 671 26 l592 3 0 -2335 0 -2336 358
0 c197 0 481 3 630 7 l272 6 -2 2711 -3 2711 -1205 1 c-663 1 -1250 -3 -1305
-7z"/>
<path d="M55250 6755 l0 -2715 630 0 630 0 0 2715 0 2715 -630 0 -630 0 0
-2715z"/>
<path d="M59310 9455 c-344 -34 -604 -105 -875 -240 -178 -89 -303 -176 -436
-303 -350 -335 -544 -760 -627 -1377 -15 -113 -17 -218 -17 -790 0 -706 3
-754 56 -1020 172 -861 688 -1410 1509 -1604 466 -111 1090 -109 1528 5 888
231 1405 897 1507 1944 20 203 20 1171 1 1355 -95 878 -485 1498 -1141 1815
-238 115 -537 191 -865 220 -152 13 -483 11 -640 -5z m558 -770 c497 -75 735
-413 813 -1155 17 -159 23 -1146 9 -1380 -33 -554 -130 -876 -328 -1090 -112
-122 -235 -189 -432 -237 -114 -27 -431 -25 -557 4 -434 102 -647 417 -728
1078 -47 384 -47 1342 0 1722 91 734 402 1067 1003 1072 67 1 166 -6 220 -14z"/>
<path d="M62790 6755 l0 -2715 638 2 637 3 3 2328 2 2328 588 -3 c656 -4 634
-2 787 -78 262 -129 416 -425 480 -925 32 -251 35 -432 35 -2037 l0 -1618 630
0 630 0 0 1573 c0 967 -4 1626 -10 1712 -89 1226 -630 1920 -1635 2101 -228
41 -313 44 -1572 44 l-1213 0 0 -2715z"/>
<path d="M6040 6555 c-190 -68 -676 -241 -1080 -385 -727 -259 -1416 -504
-2135 -760 -203 -73 -442 -157 -529 -187 -662 -228 -1264 -529 -1565 -782
-108 -91 -211 -252 -240 -375 -17 -70 -15 -214 4 -288 81 -313 404 -594 918
-799 113 -45 630 -210 822 -263 828 -225 1577 -326 2426 -326 550 0 1055 43
1584 136 77 13 143 24 147 24 5 0 8 331 8 735 0 404 -2 735 -4 735 -2 0 -295
-106 -652 -236 -920 -335 -935 -340 -1210 -388 -212 -37 -358 -49 -599 -49
-860 0 -1177 305 -613 589 50 25 717 269 1560 570 810 289 1485 531 1501 536
l27 10 0 814 c0 645 -3 814 -12 813 -7 0 -168 -56 -358 -124z"/>
<path d="M13065 5969 c-798 -38 -1772 -219 -2560 -476 l-210 -69 -3 -847 c-1
-466 0 -847 2 -847 2 0 561 196 1242 436 2027 713 1970 694 2229 738 402 69
865 65 1154 -10 428 -111 457 -335 66 -524 -66 -32 -235 -98 -375 -148 -490
-174 -4286 -1527 -4312 -1537 -17 -7 -18 -55 -18 -821 0 -448 4 -814 8 -814
22 0 6208 2225 6325 2275 429 183 823 444 993 658 177 223 213 459 103 681
-127 256 -443 496 -894 679 -161 66 -698 249 -881 301 -889 252 -1934 370
-2869 325z"/>
<path d="M68643 5445 c-389 -85 -638 -487 -538 -870 123 -471 677 -683 1080
-414 102 68 185 164 240 274 53 106 75 198 75 315 0 117 -22 207 -76 319 -39
80 -60 109 -133 182 -73 73 -102 94 -181 132 -151 73 -316 95 -467 62z m302
-100 c152 -40 285 -140 374 -280 86 -136 109 -348 54 -508 -87 -250 -319 -417
-578 -417 -277 1 -497 165 -591 440 -14 42 -18 83 -18 175 1 108 4 128 31 200
40 106 72 156 152 235 72 71 181 133 273 155 75 19 232 18 303 0z"/>
<path d="M68520 4756 l0 -386 50 0 50 0 0 166 0 166 161 -4 161 -3 23 -28 c27
-30 31 -48 42 -192 l8 -100 68 -3 c42 -2 67 1 67 8 0 5 -5 10 -10 10 -19 0
-29 48 -38 172 l-9 122 -37 32 -38 33 36 31 c51 45 74 122 58 196 -14 71 -41
107 -100 136 -44 22 -60 23 -269 26 l-223 3 0 -385z m430 279 c83 -43 79 -195
-5 -231 -24 -10 -77 -14 -180 -14 l-145 0 0 130 0 130 150 0 c115 0 158 -4
180 -15z"/>
<path d="M16572 2185 c-183 -40 -360 -179 -441 -347 -94 -194 -94 -396 -2
-583 137 -276 436 -423 736 -360 185 39 371 185 454 357 79 162 90 312 35 478
-73 221 -279 409 -499 455 -86 18 -199 18 -283 0z m332 -123 c244 -89 378
-290 364 -545 -14 -243 -176 -440 -413 -503 -68 -18 -194 -17 -269 2 -247 64
-406 268 -406 524 0 155 59 299 165 405 64 64 124 98 220 127 85 25 257 20
339 -10z"/>
<path d="M16440 1551 l0 -371 70 0 70 0 0 155 0 155 98 0 c117 -1 182 -12 198
-35 7 -9 15 -60 19 -113 3 -53 12 -112 20 -129 l15 -33 75 0 c69 0 75 2 75 20
0 12 -10 24 -24 29 -27 11 -36 48 -36 154 0 74 -15 121 -49 151 l-21 19 34 32
c61 55 71 164 23 237 -13 20 -46 45 -82 63 l-60 30 -212 3 -213 4 0 -371z
m431 230 c39 -39 41 -106 5 -148 -24 -28 -25 -28 -165 -31 l-141 -4 0 106 0
106 136 0 136 0 29 -29z"/>
</g>
</svg>
